<?xml version="1.0" encoding="UTF-8" standalone="no"?>
<!-- Created with Inkscape (http://www.inkscape.org/) -->

<svg
   xmlns:dc="http://purl.org/dc/elements/1.1/"
   xmlns:cc="http://creativecommons.org/ns#"
   xmlns:rdf="http://www.w3.org/1999/02/22-rdf-syntax-ns#"
   xmlns:svg="http://www.w3.org/2000/svg"
   xmlns="http://www.w3.org/2000/svg"
   xmlns:sodipodi="http://sodipodi.sourceforge.net/DTD/sodipodi-0.dtd"
   xmlns:inkscape="http://www.inkscape.org/namespaces/inkscape"
   width="380"
   height="380"
   viewBox="0 0 100.54167 100.54167"
   version="1.1"
   id="svg8"
   inkscape:version="0.92.2 (5c3e80d, 2017-08-06)"
   sodipodi:docname="LuciControlINFcoarse.svg">
  <defs
     id="defs2" />
  <sodipodi:namedview
     id="base"
     pagecolor="#ffffff"
     bordercolor="#666666"
     borderopacity="1.0"
     inkscape:pageopacity="0.0"
     inkscape:pageshadow="2"
     inkscape:zoom="1.51"
     inkscape:cx="21.265009"
     inkscape:cy="202.39087"
     inkscape:document-units="mm"
     inkscape:current-layer="layer1"
     showgrid="false"
     inkscape:window-width="1712"
     inkscape:window-height="980"
     inkscape:window-x="130"
     inkscape:window-y="61"
     inkscape:window-maximized="0"
     units="px" />
  <metadata
     id="metadata5">
    <rdf:RDF>
      <cc:Work
         rdf:about="">
        <dc:format>image/svg+xml</dc:format>
        <dc:type
           rdf:resource="http://purl.org/dc/dcmitype/StillImage" />
        <dc:title></dc:title>
      </cc:Work>
    </rdf:RDF>
  </metadata>
  <g
     inkscape:label="Capa 1"
     inkscape:groupmode="layer"
     id="layer1"
     transform="translate(0,-196.45833)">
    <path
       style="fill:#000023;fill-opacity:1;stroke-width:0.06989738"
       d="M 0.22678578,196.50872 H 100.49127 V 296.94956 H 0.22678578 Z"
       id="rect815"
       inkscape:connector-curvature="0" />
    <g
       aria-label="Influence"
       style="font-style:normal;font-weight:normal;font-size:10.58333302px;line-height:1.25;font-family:sans-serif;letter-spacing:0px;word-spacing:0px;fill:#000000;fill-opacity:1;stroke:none;stroke-width:0.26458332"
       id="text3647">
      <path
         d="m 25.452365,206.58609 h -4.806597 v -1.45521 h 1.344966 v -5.29718 h -1.344966 v -1.45521 h 4.806597 v 1.45521 H 24.1074 v 5.29718 h 1.344965 z"
         style="font-style:normal;font-variant:normal;font-weight:bold;font-stretch:normal;font-size:11.28888893px;font-family:sans-serif;-inkscape-font-specification:'sans-serif, Bold';font-variant-ligatures:normal;font-variant-caps:normal;font-variant-numeric:normal;font-feature-settings:normal;text-align:start;writing-mode:lr-tb;text-anchor:start;fill:#00ffff;fill-opacity:1;stroke-width:0.26458332"
         id="path3649" />
      <path
         d="M 33.296159,206.58609 H 31.30076 v -3.07027 q 0,-0.37483 -0.03859,-0.74414 -0.03859,-0.37483 -0.132292,-0.55121 -0.110243,-0.20395 -0.325217,-0.29766 -0.209462,-0.0937 -0.5898,-0.0937 -0.270096,0 -0.551216,0.0882 -0.275607,0.0882 -0.600824,0.28112 v 4.38767 h -1.984375 v -6.19015 h 1.984375 v 0.68351 q 0.529166,-0.41341 1.014236,-0.6339 0.490581,-0.22048 1.085894,-0.22048 1.003212,0 1.565451,0.58428 0.567752,0.58429 0.567752,1.74736 z"
         style="font-style:normal;font-variant:normal;font-weight:bold;font-stretch:normal;font-size:11.28888893px;font-family:sans-serif;-inkscape-font-specification:'sans-serif, Bold';font-variant-ligatures:normal;font-variant-caps:normal;font-variant-numeric:normal;font-feature-settings:normal;text-align:start;writing-mode:lr-tb;text-anchor:start;fill:#00ffff;fill-opacity:1;stroke-width:0.26458332"
         id="path3651" />
      <path
         d="m 39.13904,199.46439 h -0.148828 q -0.132292,-0.0386 -0.347266,-0.0882 -0.209461,-0.0496 -0.451996,-0.0496 -0.584288,0 -0.79375,0.20947 -0.20395,0.20946 -0.20395,0.81028 v 0.0496 h 1.532379 v 1.34497 h -1.466233 v 4.84518 h -1.984375 v -4.84518 H 34.42615 v -1.34497 h 0.848871 v -0.17087 q 0,-1.13551 0.600825,-1.70326 0.606337,-0.56775 1.830034,-0.56775 0.440973,0 0.799263,0.0331 0.35829,0.0276 0.633897,0.0772 z"
         style="font-style:normal;font-variant:normal;font-weight:bold;font-stretch:normal;font-size:11.28888893px;font-family:sans-serif;-inkscape-font-specification:'sans-serif, Bold';font-variant-ligatures:normal;font-variant-caps:normal;font-variant-numeric:normal;font-feature-settings:normal;text-align:start;writing-mode:lr-tb;text-anchor:start;fill:#00ffff;fill-opacity:1;stroke-width:0.26458332"
         id="path3653" />
      <path
         d="m 41.873069,206.58609 h -1.984375 v -8.57691 h 1.984375 z"
         style="font-style:normal;font-variant:normal;font-weight:bold;font-stretch:normal;font-size:11.28888893px;font-family:sans-serif;-inkscape-font-specification:'sans-serif, Bold';font-variant-ligatures:normal;font-variant-caps:normal;font-variant-numeric:normal;font-feature-settings:normal;text-align:start;writing-mode:lr-tb;text-anchor:start;fill:#00ffff;fill-opacity:1;stroke-width:0.26458332"
         id="path3655" />
      <path
         d="m 49.9153,206.58609 h -1.984375 v -0.68351 q -0.551215,0.41893 -1.008724,0.63941 -0.457509,0.21498 -1.091406,0.21498 -1.025261,0 -1.581988,-0.5898 -0.551216,-0.5898 -0.551216,-1.74184 v -4.02939 h 1.9954 v 3.07027 q 0,0.46853 0.02756,0.78273 0.03307,0.30868 0.143316,0.51263 0.10473,0.20395 0.314192,0.29765 0.214974,0.0937 0.595313,0.0937 0.253559,0 0.562239,-0.0937 0.308681,-0.0937 0.595313,-0.2756 v -4.38768 H 49.9153 Z"
         style="font-style:normal;font-variant:normal;font-weight:bold;font-stretch:normal;font-size:11.28888893px;font-family:sans-serif;-inkscape-font-specification:'sans-serif, Bold';font-variant-ligatures:normal;font-variant-caps:normal;font-variant-numeric:normal;font-feature-settings:normal;text-align:start;writing-mode:lr-tb;text-anchor:start;fill:#00ffff;fill-opacity:1;stroke-width:0.26458332"
         id="path3657" />
      <path
         d="m 57.891385,203.85757 h -4.542014 q 0.0441,0.72761 0.551215,1.11346 0.51263,0.38585 1.504818,0.38585 0.628385,0 1.218186,-0.226 0.5898,-0.226 0.931553,-0.48507 h 0.220486 v 1.59301 q -0.672482,0.2701 -1.267795,0.39137 -0.595312,0.12126 -1.317404,0.12126 -1.863108,0 -2.855295,-0.83784 -0.992188,-0.83785 -0.992188,-2.38676 0,-1.53238 0.937066,-2.42535 0.942578,-0.89848 2.579688,-0.89848 1.51033,0 2.271007,0.76619 0.760677,0.76067 0.760677,2.19383 z m -1.973351,-1.16306 q -0.01654,-0.62287 -0.308681,-0.93707 -0.292144,-0.31419 -0.909505,-0.31419 -0.573264,0 -0.942578,0.29766 -0.369314,0.29765 -0.413411,0.9536 z"
         style="font-style:normal;font-variant:normal;font-weight:bold;font-stretch:normal;font-size:11.28888893px;font-family:sans-serif;-inkscape-font-specification:'sans-serif, Bold';font-variant-ligatures:normal;font-variant-caps:normal;font-variant-numeric:normal;font-feature-settings:normal;text-align:start;writing-mode:lr-tb;text-anchor:start;fill:#00ffff;fill-opacity:1;stroke-width:0.26458332"
         id="path3659" />
      <path
         d="m 65.509179,206.58609 h -1.9954 v -3.07027 q 0,-0.37483 -0.03858,-0.74414 -0.03859,-0.37483 -0.132291,-0.55121 -0.110243,-0.20395 -0.325217,-0.29766 -0.209462,-0.0937 -0.589801,-0.0937 -0.270095,0 -0.551215,0.0882 -0.275608,0.0882 -0.600825,0.28112 v 4.38767 H 59.29147 v -6.19015 h 1.984375 v 0.68351 q 0.529167,-0.41341 1.014237,-0.6339 0.490581,-0.22048 1.085894,-0.22048 1.003211,0 1.565451,0.58428 0.567752,0.58429 0.567752,1.74736 z"
         style="font-style:normal;font-variant:normal;font-weight:bold;font-stretch:normal;font-size:11.28888893px;font-family:sans-serif;-inkscape-font-specification:'sans-serif, Bold';font-variant-ligatures:normal;font-variant-caps:normal;font-variant-numeric:normal;font-feature-settings:normal;text-align:start;writing-mode:lr-tb;text-anchor:start;fill:#00ffff;fill-opacity:1;stroke-width:0.26458332"
         id="path3661" />
      <path
         d="m 70.563825,206.75145 q -0.810287,0 -1.48277,-0.19292 -0.66697,-0.19293 -1.163064,-0.59531 -0.490581,-0.40239 -0.760677,-1.01424 -0.270095,-0.61185 -0.270095,-1.43316 0,-0.86541 0.286632,-1.49379 0.292144,-0.62839 0.810286,-1.0418 0.501606,-0.39136 1.157552,-0.57326 0.655946,-0.1819 1.361502,-0.1819 0.633897,0 1.168576,0.1378 0.534679,0.1378 0.9977,0.35829 v 1.69223 h -0.28112 q -0.115755,-0.0992 -0.28112,-0.23151 -0.159852,-0.13229 -0.396875,-0.25907 -0.225998,-0.12127 -0.496093,-0.19844 -0.270096,-0.0827 -0.628386,-0.0827 -0.79375,0 -1.223698,0.50712 -0.424436,0.5016 -0.424436,1.36701 0,0.89297 0.435461,1.35599 0.440972,0.46302 1.245746,0.46302 0.374826,0 0.672483,-0.0827 0.303168,-0.0882 0.501606,-0.20395 0.187413,-0.11024 0.330729,-0.23151 0.143316,-0.12127 0.264583,-0.23702 h 0.28112 v 1.69223 q -0.468533,0.22048 -0.981163,0.34726 -0.507118,0.13229 -1.124479,0.13229 z"
         style="font-style:normal;font-variant:normal;font-weight:bold;font-stretch:normal;font-size:11.28888893px;font-family:sans-serif;-inkscape-font-specification:'sans-serif, Bold';font-variant-ligatures:normal;font-variant-caps:normal;font-variant-numeric:normal;font-feature-settings:normal;text-align:start;writing-mode:lr-tb;text-anchor:start;fill:#00ffff;fill-opacity:1;stroke-width:0.26458332"
         id="path3663" />
      <path
         d="m 80.072287,203.85757 h -4.542014 q 0.0441,0.72761 0.551216,1.11346 0.51263,0.38585 1.504817,0.38585 0.628386,0 1.218186,-0.226 0.5898,-0.226 0.931554,-0.48507 h 0.220486 v 1.59301 q -0.672483,0.2701 -1.267795,0.39137 -0.595313,0.12126 -1.317405,0.12126 -1.863107,0 -2.855295,-0.83784 -0.992187,-0.83785 -0.992187,-2.38676 0,-1.53238 0.937066,-2.42535 0.942578,-0.89848 2.579687,-0.89848 1.51033,0 2.271007,0.76619 0.760677,0.76067 0.760677,2.19383 z m -1.973351,-1.16306 q -0.01654,-0.62287 -0.30868,-0.93707 -0.292144,-0.31419 -0.909505,-0.31419 -0.573264,0 -0.942578,0.29766 -0.369315,0.29765 -0.413412,0.9536 z"
         style="font-style:normal;font-variant:normal;font-weight:bold;font-stretch:normal;font-size:11.28888893px;font-family:sans-serif;-inkscape-font-specification:'sans-serif, Bold';font-variant-ligatures:normal;font-variant-caps:normal;font-variant-numeric:normal;font-feature-settings:normal;text-align:start;writing-mode:lr-tb;text-anchor:start;fill:#00ffff;fill-opacity:1;stroke-width:0.26458332"
         id="path3665" />
    </g>
    <g
       aria-label="coarse"
       style="font-style:normal;font-weight:normal;font-size:10.58333302px;line-height:1.25;font-family:sans-serif;letter-spacing:0px;word-spacing:0px;fill:#000000;fill-opacity:1;stroke:none;stroke-width:0.26458332"
       id="text3670"
       transform="translate(0,1.5875)">
      <path
         d="m 8.0408732,210.57436 q -0.2914551,0.13952 -0.5550049,0.21704 -0.2604492,0.0775 -0.5550049,0.0775 -0.3751708,0 -0.68833,-0.10852 -0.3131592,-0.11162 -0.5364014,-0.33486 -0.2263428,-0.22324 -0.3503662,-0.56431 -0.1240234,-0.34106 -0.1240234,-0.79685 0,-0.84956 0.4650879,-1.33325 0.4681884,-0.48369 1.2340331,-0.48369 0.2976563,0 0.5829102,0.0837 0.2883545,0.0837 0.5270996,0.20464 v 0.64802 h -0.031006 q -0.2666504,-0.20773 -0.5519043,-0.31936 -0.2821533,-0.11162 -0.5519042,-0.11162 -0.4960938,0 -0.7844483,0.33487 -0.2852539,0.33176 -0.2852539,0.97668 0,0.62632 0.2790528,0.96428 0.2821533,0.33487 0.7906494,0.33487 0.1767334,0 0.3596679,-0.0465 0.1829346,-0.0465 0.3286621,-0.12093 0.127124,-0.0651 0.2387451,-0.13642 0.1116211,-0.0744 0.1767334,-0.12713 h 0.031006 z"
         style="font-style:normal;font-variant:normal;font-weight:normal;font-stretch:normal;font-size:6.3499999px;font-family:sans-serif;-inkscape-font-specification:'sans-serif, Normal';font-variant-ligatures:normal;font-variant-caps:normal;font-variant-numeric:normal;font-feature-settings:normal;text-align:start;writing-mode:lr-tb;text-anchor:start;fill:#00ffff;fill-opacity:1;stroke-width:0.26458332"
         id="path3672"
         inkscape:connector-curvature="0" />
      <path
         d="m 11.742973,209.06127 q 0,0.84646 -0.434082,1.33635 -0.434082,0.4899 -1.16272,0.4899 -0.7348389,0 -1.1689209,-0.4899 -0.4309815,-0.48989 -0.4309815,-1.33635 0,-0.84646 0.4309815,-1.33635 0.434082,-0.493 1.1689209,-0.493 0.728638,0 1.16272,0.493 0.434082,0.48989 0.434082,1.33635 z m -0.601514,0 q 0,-0.67283 -0.26355,-0.99839 -0.26355,-0.32866 -0.731738,-0.32866 -0.4743897,0 -0.7379395,0.32866 -0.2604492,0.32556 -0.2604492,0.99839 0,0.65112 0.2635498,0.98909 0.2635498,0.33486 0.7348389,0.33486 0.465088,0 0.728638,-0.33176 0.26665,-0.33487 0.26665,-0.99219 z"
         style="font-style:normal;font-variant:normal;font-weight:normal;font-stretch:normal;font-size:6.3499999px;font-family:sans-serif;-inkscape-font-specification:'sans-serif, Normal';font-variant-ligatures:normal;font-variant-caps:normal;font-variant-numeric:normal;font-feature-settings:normal;text-align:start;writing-mode:lr-tb;text-anchor:start;fill:#00ffff;fill-opacity:1;stroke-width:0.26458332"
         id="path3674"
         inkscape:connector-curvature="0" />
      <path
         d="m 15.339652,210.7914 h -0.579809 v -0.36897 q -0.07752,0.0527 -0.21084,0.14883 -0.130225,0.093 -0.254248,0.14882 -0.145728,0.0713 -0.334864,0.11783 -0.189135,0.0496 -0.443383,0.0496 -0.468189,0 -0.79375,-0.31006 -0.325562,-0.31006 -0.325562,-0.79065 0,-0.39378 0.167432,-0.63562 0.170532,-0.24495 0.483691,-0.38448 0.31626,-0.13952 0.759644,-0.18913 0.443383,-0.0496 0.95188,-0.0744 v -0.0899 q 0,-0.19844 -0.07131,-0.32866 -0.06821,-0.13023 -0.198437,-0.20464 -0.124024,-0.0713 -0.297657,-0.0961 -0.173632,-0.0248 -0.362768,-0.0248 -0.229444,0 -0.511597,0.062 -0.282153,0.0589 -0.58291,0.17363 h -0.03101 v -0.59221 q 0.170532,-0.0465 0.492993,-0.10232 0.322461,-0.0558 0.63562,-0.0558 0.365869,0 0.63562,0.062 0.272852,0.0589 0.47129,0.20464 0.195336,0.14262 0.297656,0.36897 0.102319,0.22634 0.102319,0.5612 z m -0.579809,-0.85266 v -0.96429 q -0.266651,0.0155 -0.629419,0.0465 -0.359668,0.031 -0.570508,0.0899 -0.251148,0.0713 -0.406177,0.22324 -0.155029,0.14883 -0.155029,0.41238 0,0.29766 0.179834,0.44958 0.179834,0.14883 0.548803,0.14883 0.306958,0 0.561206,-0.11782 0.254249,-0.12092 0.47129,-0.28835 z"
         style="font-style:normal;font-variant:normal;font-weight:normal;font-stretch:normal;font-size:6.3499999px;font-family:sans-serif;-inkscape-font-specification:'sans-serif, Normal';font-variant-ligatures:normal;font-variant-caps:normal;font-variant-numeric:normal;font-feature-settings:normal;text-align:start;writing-mode:lr-tb;text-anchor:start;fill:#00ffff;fill-opacity:1;stroke-width:0.26458332"
         id="path3676"
         inkscape:connector-curvature="0" />
      <path
         d="m 18.629373,207.96366 h -0.03101 q -0.130225,-0.031 -0.254248,-0.0434 -0.120923,-0.0155 -0.288355,-0.0155 -0.269751,0 -0.520898,0.12092 -0.251148,0.11783 -0.483692,0.30696 v 2.45877 h -0.58291 v -3.46336 h 0.58291 v 0.5116 q 0.347266,-0.27905 0.610816,-0.39378 0.26665,-0.11782 0.542602,-0.11782 0.151929,0 0.220142,0.009 0.06821,0.006 0.204638,0.0279 z"
         style="font-style:normal;font-variant:normal;font-weight:normal;font-stretch:normal;font-size:6.3499999px;font-family:sans-serif;-inkscape-font-specification:'sans-serif, Normal';font-variant-ligatures:normal;font-variant-caps:normal;font-variant-numeric:normal;font-feature-settings:normal;text-align:start;writing-mode:lr-tb;text-anchor:start;fill:#00ffff;fill-opacity:1;stroke-width:0.26458332"
         id="path3678"
         inkscape:connector-curvature="0" />
      <path
         d="m 21.658647,209.79301 q 0,0.47439 -0.393775,0.77825 -0.390674,0.30385 -1.069702,0.30385 -0.384473,0 -0.706933,-0.0899 -0.319361,-0.093 -0.536402,-0.20154 v -0.65423 h 0.03101 q 0.275952,0.20774 0.613916,0.33177 0.337964,0.12092 0.648022,0.12092 0.384473,0 0.601514,-0.12402 0.217041,-0.12403 0.217041,-0.39068 0,-0.20464 -0.117822,-0.31006 -0.117822,-0.10542 -0.452686,-0.17983 -0.124023,-0.0279 -0.325561,-0.0651 -0.198438,-0.0372 -0.362769,-0.0806 -0.455786,-0.12092 -0.648022,-0.35346 -0.189136,-0.23565 -0.189136,-0.57671 0,-0.21394 0.08682,-0.40308 0.08992,-0.18914 0.269751,-0.33796 0.173633,-0.14573 0.440284,-0.22945 0.269751,-0.0868 0.601513,-0.0868 0.310059,0 0.626319,0.0775 0.31936,0.0744 0.5302,0.18294 v 0.62321 h -0.03101 q -0.223242,-0.16433 -0.542603,-0.27595 -0.31936,-0.11472 -0.626318,-0.11472 -0.31936,0 -0.539502,0.12402 -0.220141,0.12093 -0.220141,0.36277 0,0.21394 0.133325,0.32246 0.130224,0.10852 0.421679,0.17674 0.161231,0.0372 0.359668,0.0744 0.201538,0.0372 0.334864,0.0682 0.406176,0.093 0.626318,0.31936 0.220142,0.22945 0.220142,0.60772 z"
         style="font-style:normal;font-variant:normal;font-weight:normal;font-stretch:normal;font-size:6.3499999px;font-family:sans-serif;-inkscape-font-specification:'sans-serif, Normal';font-variant-ligatures:normal;font-variant-caps:normal;font-variant-numeric:normal;font-feature-settings:normal;text-align:start;writing-mode:lr-tb;text-anchor:start;fill:#00ffff;fill-opacity:1;stroke-width:0.26458332"
         id="path3680"
         inkscape:connector-curvature="0" />
      <path
         d="m 25.394853,209.12018 h -2.551782 q 0,0.31936 0.09612,0.55811 0.09612,0.23564 0.26355,0.38757 0.16123,0.14883 0.381372,0.22324 0.223242,0.0744 0.489892,0.0744 0.353467,0 0.710035,-0.13953 0.359668,-0.14263 0.511596,-0.27905 h 0.03101 v 0.63562 q -0.294555,0.12402 -0.601513,0.20774 -0.306958,0.0837 -0.644922,0.0837 -0.861963,0 -1.345655,-0.46509 -0.483691,-0.46818 -0.483691,-1.32705 0,-0.84956 0.461987,-1.34875 0.465088,-0.4992 1.221631,-0.4992 0.700733,0 1.079004,0.40928 0.381372,0.40928 0.381372,1.16272 z m -0.567407,-0.44648 q -0.0031,-0.45889 -0.232544,-0.71004 -0.226343,-0.25114 -0.691431,-0.25114 -0.468188,0 -0.747241,0.27595 -0.275952,0.27595 -0.313159,0.68523 z"
         style="font-style:normal;font-variant:normal;font-weight:normal;font-stretch:normal;font-size:6.3499999px;font-family:sans-serif;-inkscape-font-specification:'sans-serif, Normal';font-variant-ligatures:normal;font-variant-caps:normal;font-variant-numeric:normal;font-feature-settings:normal;text-align:start;writing-mode:lr-tb;text-anchor:start;fill:#00ffff;fill-opacity:1;stroke-width:0.26458332"
         id="path3682"
         inkscape:connector-curvature="0" />
    </g>
  </g>
</svg>
