<?xml version="1.0" encoding="UTF-8" standalone="no"?>
<!-- Created with Inkscape (http://www.inkscape.org/) -->

<svg
   xmlns:dc="http://purl.org/dc/elements/1.1/"
   xmlns:cc="http://creativecommons.org/ns#"
   xmlns:rdf="http://www.w3.org/1999/02/22-rdf-syntax-ns#"
   xmlns:svg="http://www.w3.org/2000/svg"
   xmlns="http://www.w3.org/2000/svg"
   xmlns:sodipodi="http://sodipodi.sourceforge.net/DTD/sodipodi-0.dtd"
   xmlns:inkscape="http://www.inkscape.org/namespaces/inkscape"
   width="90"
   height="380"
   viewBox="0 0 23.812501 100.54167"
   version="1.1"
   id="svg8"
   inkscape:version="0.92.2 (5c3e80d, 2017-08-06)"
   sodipodi:docname="QU4DiT.svg">
  <defs
     id="defs2">
    <inkscape:path-effect
       effect="bounding_box"
       id="path-effect4604"
       is_visible="true"
       linkedpath=""
       visualbounds="false" />
    <clipPath
       clipPathUnits="userSpaceOnUse"
       id="clipPath4669">
      <g
         id="use4671"
         inkscape:label="Clip">
        <g
           id="g960"
           style="font-style:normal;font-weight:normal;font-size:5.64380836px;line-height:1.25;font-family:sans-serif;letter-spacing:0px;word-spacing:0px;fill:#000000;fill-opacity:1;stroke:none;stroke-width:0.14109521"
           transform="scale(0.98538186,1.014835)"
           aria-label="QU4DiT">
          <path
             id="path948"
             style="stroke-width:0.14109521"
             d="m 5.5049476,207.05645 q -0.1653459,0.0413 -0.3279361,0.0579 -0.1598344,0.0193 -0.3279361,0.0193 -0.4795033,0 -0.7716145,-0.26455 -0.2893554,-0.2618 -0.3141573,-0.75232 -0.066138,0.011 -0.129521,0.0138 -0.060627,0.006 -0.1184979,0.006 -0.4326552,0 -0.788149,-0.1433 -0.352738,-0.1433 -0.6007569,-0.41612 -0.248019,-0.27282 -0.3830515,-0.66965 -0.1322768,-0.39683 -0.1322768,-0.90665 0,-0.50155 0.1322768,-0.89838 0.1322768,-0.39959 0.3858072,-0.68343 0.2425074,-0.27007 0.600757,-0.41337 0.3610053,-0.1433 0.7853932,-0.1433 0.4409225,0 0.7909048,0.14606 0.352738,0.1433 0.5980012,0.41061 0.2507747,0.27558 0.3830514,0.67516 0.1350326,0.39959 0.1350326,0.90665 0,0.75232 -0.3086458,1.26765 -0.30589,0.51533 -0.823974,0.72201 0.011023,0.31416 0.1488114,0.48777 0.1377882,0.17362 0.5015493,0.17362 0.1129864,0 0.2673093,-0.0358 0.1570787,-0.0331 0.223217,-0.0606 h 0.074406 z m -0.6503607,-3.05614 q 0,-0.79917 -0.3582496,-1.23183 -0.3582495,-0.43541 -0.9782968,-0.43541 -0.6255589,0 -0.9838084,0.43541 -0.3554938,0.43266 -0.3554938,1.23183 0,0.80744 0.3637611,1.23734 0.3637611,0.42714 0.9755411,0.42714 0.61178,0 0.9727853,-0.42714 0.3637611,-0.4299 0.3637611,-1.23734 z"
             inkscape:connector-curvature="0" />
          <path
             id="path950"
             style="stroke-width:0.14109521"
             d="m 9.3767987,204.40265 q 0,0.44643 -0.099208,0.77988 -0.096452,0.33069 -0.3196688,0.55116 -0.212194,0.20943 -0.4960378,0.30589 -0.2838439,0.0965 -0.6613838,0.0965 -0.3858073,0 -0.6724069,-0.10197 -0.2865996,-0.10196 -0.482259,-0.30037 -0.223217,-0.22598 -0.3224246,-0.54565 -0.096452,-0.31967 -0.096452,-0.78539 v -2.45539 H 6.7726 v 2.48295 q 0,0.33345 0.044092,0.52635 0.046848,0.1929 0.1543229,0.34998 0.1212537,0.17913 0.3279361,0.27007 0.2094382,0.0909 0.5015494,0.0909 0.2948669,0 0.5015493,-0.0882 0.2066825,-0.0909 0.3306919,-0.27282 0.1074749,-0.15708 0.1515672,-0.35825 0.046848,-0.20392 0.046848,-0.5043 v -2.49673 h 0.5456416 z"
             inkscape:connector-curvature="0" />
          <path
             id="path952"
             style="stroke-width:0.14109521"
             d="m 13.185267,204.89593 h -0.609025 v 1.15467 h -0.529107 v -1.15467 h -1.964861 v -0.63382 l 1.986908,-2.31485 h 0.50706 v 2.50775 h 0.609025 z m -1.138132,-0.44092 v -1.85187 l -1.590076,1.85187 z"
             inkscape:connector-curvature="0" />
          <path
             id="path954"
             style="stroke-width:0.14109521"
             d="m 17.481506,204.00306 q 0,0.55942 -0.245263,1.01413 -0.242507,0.4547 -0.647605,0.70547 -0.281088,0.17362 -0.628315,0.25078 -0.34447,0.0772 -0.909402,0.0772 h -1.036168 v -4.10334 h 1.025145 q 0.600757,0 0.953495,0.0882 0.355493,0.0854 0.600757,0.23699 0.418876,0.2618 0.653116,0.69721 0.23424,0.43541 0.23424,1.03341 z m -0.570443,-0.008 q 0,-0.48226 -0.168102,-0.81295 -0.168102,-0.3307 -0.501549,-0.52084 -0.242508,-0.13779 -0.515329,-0.19015 -0.27282,-0.0551 -0.653116,-0.0551 h -0.512573 v 3.16638 h 0.512573 q 0.394074,0 0.686186,-0.0579 0.294867,-0.0579 0.54013,-0.21495 0.30589,-0.19566 0.457457,-0.51533 0.154323,-0.31967 0.154323,-0.79917 z"
             inkscape:connector-curvature="0" />
          <path
             id="path956"
             style="stroke-width:0.14109521"
             d="m 18.88419,202.45708 h -0.584222 v -0.53737 h 0.584222 z m -0.03307,3.59352 h -0.518084 v -3.07819 h 0.518084 z"
             inkscape:connector-curvature="0" />
          <path
             id="path958"
             style="stroke-width:0.14109521"
             d="M 22.849738,202.43228 H 21.38367 v 3.61832 h -0.545641 v -3.61832 h -1.466068 v -0.48502 h 3.477777 z"
             inkscape:connector-curvature="0" />
        </g>
      </g>
    </clipPath>
  </defs>
  <sodipodi:namedview
     id="base"
     pagecolor="#ffffff"
     bordercolor="#666666"
     borderopacity="1.0"
     inkscape:pageopacity="0.0"
     inkscape:pageshadow="2"
     inkscape:zoom="0.99"
     inkscape:cx="47.052048"
     inkscape:cy="99"
     inkscape:document-units="mm"
     inkscape:current-layer="layer1"
     showgrid="false"
     units="px"
     inkscape:snap-bbox="true"
     inkscape:snap-page="true"
     inkscape:bbox-nodes="true"
     inkscape:snap-bbox-edge-midpoints="true"
     inkscape:window-width="924"
     inkscape:window-height="838"
     inkscape:window-x="869"
     inkscape:window-y="23"
     inkscape:window-maximized="0" />
  <metadata
     id="metadata5">
    <rdf:RDF>
      <cc:Work
         rdf:about="">
        <dc:format>image/svg+xml</dc:format>
        <dc:type
           rdf:resource="http://purl.org/dc/dcmitype/StillImage" />
        <dc:title />
      </cc:Work>
    </rdf:RDF>
  </metadata>
  <g
     inkscape:label="Layer 1"
     inkscape:groupmode="layer"
     id="layer1"
     transform="translate(0,-196.45832)">
    <path
       style="opacity:1;vector-effect:none;fill:#4c7262;fill-opacity:1;fill-rule:evenodd;stroke:none;stroke-width:0.48607069;stroke-linecap:butt;stroke-linejoin:round;stroke-miterlimit:4;stroke-dasharray:none;stroke-dashoffset:0;stroke-opacity:1;paint-order:normal"
       d="M 0,196.45831 H 23.8125 V 296.99999 H 0 Z"
       id="rect817"
       inkscape:connector-curvature="0" />
    <g
       aria-label="Instruments"
       style="font-style:normal;font-weight:normal;font-size:10.58333302px;line-height:1.25;font-family:sans-serif;letter-spacing:0px;word-spacing:0px;fill:#000000;fill-opacity:1;stroke:none;stroke-width:0.26458332"
       id="text861"
       transform="translate(0,2.1166667)">
      <path
         d="M 4.2874707,291.78391 H 3.4771843 v -0.20947 h 0.2687174 v -1.63297 H 3.4771843 v -0.20946 h 0.8102864 v 0.20946 H 4.0187533 v 1.63297 h 0.2687174 z"
         style="font-style:normal;font-variant:normal;font-weight:normal;font-stretch:normal;font-size:2.82222223px;font-family:sans-serif;-inkscape-font-specification:'sans-serif, Normal';font-variant-ligatures:normal;font-variant-caps:normal;font-variant-numeric:normal;font-feature-settings:normal;text-align:start;writing-mode:lr-tb;text-anchor:start;stroke-width:0.26458332"
         id="path875"
         inkscape:connector-curvature="0" />
      <path
         d="M 6.0210427,291.78391 H 5.7619715 v -0.87644 q 0,-0.10611 -0.012402,-0.19843 -0.012402,-0.0937 -0.045475,-0.14608 -0.034451,-0.0579 -0.099219,-0.0854 -0.064768,-0.0289 -0.1681207,-0.0289 -0.1061089,0 -0.2218641,0.0524 -0.1157552,0.0524 -0.2218642,0.13367 v 1.14929 H 4.733955 v -1.53927 h 0.2590712 v 0.17087 q 0.1212674,-0.10059 0.250803,-0.15709 0.1295356,-0.0565 0.2659613,-0.0565 0.249425,0 0.3803386,0.1502 0.1309136,0.15021 0.1309136,0.43271 z"
         style="font-style:normal;font-variant:normal;font-weight:normal;font-stretch:normal;font-size:2.82222223px;font-family:sans-serif;-inkscape-font-specification:'sans-serif, Normal';font-variant-ligatures:normal;font-variant-caps:normal;font-variant-numeric:normal;font-feature-settings:normal;text-align:start;writing-mode:lr-tb;text-anchor:start;stroke-width:0.26458332"
         id="path877"
         inkscape:connector-curvature="0" />
      <path
         d="m 7.6195671,291.34018 q 0,0.21084 -0.1750109,0.34588 -0.1736328,0.13505 -0.4754232,0.13505 -0.1708767,0 -0.3141927,-0.04 -0.1419379,-0.0413 -0.2384006,-0.0896 v -0.29077 h 0.01378 q 0.1226454,0.0923 0.2728516,0.14745 0.1502061,0.0537 0.28801,0.0537 0.1708767,0 0.2673394,-0.0551 0.096463,-0.0551 0.096463,-0.17363 0,-0.0909 -0.052365,-0.1378 -0.052365,-0.0469 -0.2011936,-0.0799 -0.055122,-0.0124 -0.144694,-0.0289 -0.088194,-0.0165 -0.1612305,-0.0358 -0.2025716,-0.0537 -0.28801,-0.15709 -0.08406,-0.10474 -0.08406,-0.25632 0,-0.0951 0.038585,-0.17914 0.039963,-0.0841 0.1198893,-0.15021 0.07717,-0.0648 0.1956814,-0.10198 0.1198894,-0.0386 0.2673394,-0.0386 0.1378039,0 0.2783638,0.0344 0.1419379,0.0331 0.2356445,0.0813 v 0.27699 h -0.01378 q -0.099219,-0.073 -0.2411567,-0.12265 -0.1419379,-0.051 -0.2783637,-0.051 -0.1419379,0 -0.2397786,0.0551 -0.097841,0.0537 -0.097841,0.16123 0,0.0951 0.059256,0.14332 0.057878,0.0482 0.1874132,0.0785 0.071658,0.0165 0.1598524,0.0331 0.089573,0.0165 0.1488281,0.0303 0.180523,0.0413 0.2783638,0.14194 0.097841,0.10198 0.097841,0.2701 z"
         style="font-style:normal;font-variant:normal;font-weight:normal;font-stretch:normal;font-size:2.82222223px;font-family:sans-serif;-inkscape-font-specification:'sans-serif, Normal';font-variant-ligatures:normal;font-variant-caps:normal;font-variant-numeric:normal;font-feature-settings:normal;text-align:start;writing-mode:lr-tb;text-anchor:start;stroke-width:0.26458332"
         id="path879"
         inkscape:connector-curvature="0" />
      <path
         d="m 8.7908993,291.77012 q -0.073036,0.0193 -0.1598525,0.0317 -0.085438,0.0124 -0.1529622,0.0124 -0.2356445,0 -0.3582899,-0.12678 -0.1226454,-0.12678 -0.1226454,-0.40652 v -0.81855 H 7.8221384 v -0.21773 h 0.1750109 v -0.44235 h 0.2590712 v 0.44235 h 0.5346788 v 0.21773 H 8.2562205 v 0.70142 q 0,0.12127 0.00551,0.19017 0.00551,0.0675 0.038585,0.12678 0.030317,0.0551 0.082682,0.0813 0.053744,0.0248 0.1626085,0.0248 0.06339,0 0.1322916,-0.0179 0.068902,-0.0193 0.099219,-0.0317 h 0.01378 z"
         style="font-style:normal;font-variant:normal;font-weight:normal;font-stretch:normal;font-size:2.82222223px;font-family:sans-serif;-inkscape-font-specification:'sans-serif, Normal';font-variant-ligatures:normal;font-variant-caps:normal;font-variant-numeric:normal;font-feature-settings:normal;text-align:start;writing-mode:lr-tb;text-anchor:start;stroke-width:0.26458332"
         id="path881"
         inkscape:connector-curvature="0" />
      <path
         d="m 10.065585,290.52713 h -0.01378 q -0.057877,-0.0138 -0.1129989,-0.0193 -0.053743,-0.007 -0.1281576,-0.007 -0.1198893,0 -0.2315104,0.0537 -0.1116211,0.0524 -0.214974,0.13643 v 1.09279 H 9.1050919 v -1.53927 h 0.2590712 v 0.22737 q 0.1543403,-0.12402 0.2714736,-0.17501 0.1185112,-0.0524 0.2411566,-0.0524 0.067524,0 0.097841,0.004 0.030317,0.003 0.090951,0.0124 z"
         style="font-style:normal;font-variant:normal;font-weight:normal;font-stretch:normal;font-size:2.82222223px;font-family:sans-serif;-inkscape-font-specification:'sans-serif, Normal';font-variant-ligatures:normal;font-variant-caps:normal;font-variant-numeric:normal;font-feature-settings:normal;text-align:start;writing-mode:lr-tb;text-anchor:start;stroke-width:0.26458332"
         id="path883"
         inkscape:connector-curvature="0" />
      <path
         d="m 11.588317,291.78391 h -0.259071 v -0.17088 q -0.130914,0.10335 -0.250803,0.15847 -0.119889,0.0551 -0.264583,0.0551 -0.242535,0 -0.377583,-0.14745 -0.135047,-0.14882 -0.135047,-0.43546 v -0.99907 h 0.259071 v 0.87643 q 0,0.11713 0.01102,0.20119 0.01102,0.0827 0.04685,0.14194 0.03721,0.0606 0.09646,0.0882 0.05926,0.0276 0.172255,0.0276 0.100597,0 0.219108,-0.0524 0.119889,-0.0524 0.223242,-0.13367 v -1.14928 h 0.259071 z"
         style="font-style:normal;font-variant:normal;font-weight:normal;font-stretch:normal;font-size:2.82222223px;font-family:sans-serif;-inkscape-font-specification:'sans-serif, Normal';font-variant-ligatures:normal;font-variant-caps:normal;font-variant-numeric:normal;font-feature-settings:normal;text-align:start;writing-mode:lr-tb;text-anchor:start;stroke-width:0.26458332"
         id="path885"
         inkscape:connector-curvature="0" />
      <path
         d="m 14.344393,291.78391 h -0.259071 v -0.87644 q 0,-0.0992 -0.0096,-0.19154 -0.0083,-0.0923 -0.03721,-0.14745 -0.03169,-0.0593 -0.09095,-0.0896 -0.05926,-0.0303 -0.170876,-0.0303 -0.108865,0 -0.21773,0.0551 -0.108865,0.0537 -0.21773,0.1378 0.0041,0.0317 0.0069,0.0744 0.0028,0.0413 0.0028,0.0827 v 0.9853 h -0.259071 v -0.87644 q 0,-0.10197 -0.0096,-0.19292 -0.0083,-0.0923 -0.03721,-0.14745 -0.03169,-0.0593 -0.09095,-0.0882 -0.05926,-0.0303 -0.170877,-0.0303 -0.106109,0 -0.213596,0.0524 -0.106109,0.0524 -0.212218,0.13367 v 1.14929 h -0.259071 v -1.53927 h 0.259071 v 0.17087 q 0.121268,-0.10059 0.241157,-0.15709 0.121267,-0.0565 0.257693,-0.0565 0.157097,0 0.265962,0.0661 0.110243,0.0661 0.163986,0.18328 0.157096,-0.13229 0.286632,-0.19017 0.129536,-0.0593 0.276986,-0.0593 0.253559,0 0.373448,0.15434 0.121267,0.15296 0.121267,0.42857 z"
         style="font-style:normal;font-variant:normal;font-weight:normal;font-stretch:normal;font-size:2.82222223px;font-family:sans-serif;-inkscape-font-specification:'sans-serif, Normal';font-variant-ligatures:normal;font-variant-caps:normal;font-variant-numeric:normal;font-feature-settings:normal;text-align:start;writing-mode:lr-tb;text-anchor:start;stroke-width:0.26458332"
         id="path887"
         inkscape:connector-curvature="0" />
      <path
         d="m 16.131709,291.04114 h -1.134125 q 0,0.14194 0.04272,0.24805 0.04272,0.10473 0.117133,0.17225 0.07166,0.0661 0.169499,0.0992 0.09922,0.0331 0.21773,0.0331 0.157096,0 0.315571,-0.062 0.159852,-0.0634 0.227376,-0.12402 h 0.01378 v 0.2825 q -0.130913,0.0551 -0.267339,0.0923 -0.136426,0.0372 -0.286632,0.0372 -0.383095,0 -0.598069,-0.2067 -0.214974,-0.20809 -0.214974,-0.5898 0,-0.37758 0.205328,-0.59945 0.206706,-0.22186 0.542947,-0.22186 0.311437,0 0.479558,0.1819 0.169498,0.1819 0.169498,0.51676 z m -0.252181,-0.19844 q -0.0014,-0.20394 -0.103353,-0.31557 -0.100596,-0.11162 -0.307302,-0.11162 -0.208084,0 -0.332107,0.12265 -0.122646,0.12264 -0.139182,0.30454 z"
         style="font-style:normal;font-variant:normal;font-weight:normal;font-stretch:normal;font-size:2.82222223px;font-family:sans-serif;-inkscape-font-specification:'sans-serif, Normal';font-variant-ligatures:normal;font-variant-caps:normal;font-variant-numeric:normal;font-feature-settings:normal;text-align:start;writing-mode:lr-tb;text-anchor:start;stroke-width:0.26458332"
         id="path889"
         inkscape:connector-curvature="0" />
      <path
         d="m 17.811538,291.78391 h -0.259071 v -0.87644 q 0,-0.10611 -0.0124,-0.19843 -0.0124,-0.0937 -0.04547,-0.14608 -0.03445,-0.0579 -0.09922,-0.0854 -0.06477,-0.0289 -0.16812,-0.0289 -0.106109,0 -0.221864,0.0524 -0.115756,0.0524 -0.221865,0.13367 v 1.14929 H 16.52445 v -1.53927 h 0.259071 v 0.17087 q 0.121268,-0.10059 0.250803,-0.15709 0.129536,-0.0565 0.265962,-0.0565 0.249425,0 0.380338,0.1502 0.130914,0.15021 0.130914,0.43271 z"
         style="font-style:normal;font-variant:normal;font-weight:normal;font-stretch:normal;font-size:2.82222223px;font-family:sans-serif;-inkscape-font-specification:'sans-serif, Normal';font-variant-ligatures:normal;font-variant-caps:normal;font-variant-numeric:normal;font-feature-settings:normal;text-align:start;writing-mode:lr-tb;text-anchor:start;stroke-width:0.26458332"
         id="path891"
         inkscape:connector-curvature="0" />
      <path
         d="m 19.10965,291.77012 q -0.07304,0.0193 -0.159853,0.0317 -0.08544,0.0124 -0.152962,0.0124 -0.235645,0 -0.35829,-0.12678 -0.122645,-0.12678 -0.122645,-0.40652 v -0.81855 h -0.175011 v -0.21773 H 18.3159 v -0.44235 h 0.259071 v 0.44235 h 0.534679 v 0.21773 h -0.534679 v 0.70142 q 0,0.12127 0.0055,0.19017 0.0055,0.0675 0.03858,0.12678 0.03032,0.0551 0.08268,0.0813 0.05374,0.0248 0.162609,0.0248 0.06339,0 0.132292,-0.0179 0.0689,-0.0193 0.09922,-0.0317 h 0.01378 z"
         style="font-style:normal;font-variant:normal;font-weight:normal;font-stretch:normal;font-size:2.82222223px;font-family:sans-serif;-inkscape-font-specification:'sans-serif, Normal';font-variant-ligatures:normal;font-variant-caps:normal;font-variant-numeric:normal;font-feature-settings:normal;text-align:start;writing-mode:lr-tb;text-anchor:start;stroke-width:0.26458332"
         id="path893"
         inkscape:connector-curvature="0" />
      <path
         d="m 20.523517,291.34018 q 0,0.21084 -0.175011,0.34588 -0.173633,0.13505 -0.475423,0.13505 -0.170877,0 -0.314193,-0.04 -0.141938,-0.0413 -0.238401,-0.0896 v -0.29077 h 0.01378 q 0.122645,0.0923 0.272851,0.14745 0.150207,0.0537 0.28801,0.0537 0.170877,0 0.26734,-0.0551 0.09646,-0.0551 0.09646,-0.17363 0,-0.0909 -0.05236,-0.1378 -0.05237,-0.0469 -0.201194,-0.0799 -0.05512,-0.0124 -0.144694,-0.0289 -0.08819,-0.0165 -0.16123,-0.0358 -0.202572,-0.0537 -0.28801,-0.15709 -0.08406,-0.10474 -0.08406,-0.25632 0,-0.0951 0.03858,-0.17914 0.03996,-0.0841 0.119889,-0.15021 0.07717,-0.0648 0.195681,-0.10198 0.11989,-0.0386 0.26734,-0.0386 0.137804,0 0.278364,0.0344 0.141938,0.0331 0.235644,0.0813 v 0.27699 H 20.4491 q -0.09922,-0.073 -0.241157,-0.12265 -0.141938,-0.051 -0.278364,-0.051 -0.141938,0 -0.239778,0.0551 -0.09784,0.0537 -0.09784,0.16123 0,0.0951 0.05926,0.14332 0.05788,0.0482 0.187413,0.0785 0.07166,0.0165 0.159852,0.0331 0.08957,0.0165 0.148828,0.0303 0.180523,0.0413 0.278364,0.14194 0.09784,0.10198 0.09784,0.2701 z"
         style="font-style:normal;font-variant:normal;font-weight:normal;font-stretch:normal;font-size:2.82222223px;font-family:sans-serif;-inkscape-font-specification:'sans-serif, Normal';font-variant-ligatures:normal;font-variant-caps:normal;font-variant-numeric:normal;font-feature-settings:normal;text-align:start;writing-mode:lr-tb;text-anchor:start;stroke-width:0.26458332"
         id="path895"
         inkscape:connector-curvature="0" />
    </g>
    <g
       aria-label="NonLinear"
       style="font-style:normal;font-weight:normal;font-size:10.58333302px;line-height:1.25;font-family:sans-serif;letter-spacing:0px;word-spacing:0px;fill:#000000;fill-opacity:1;stroke:none;stroke-width:0.26458332"
       id="text873"
       transform="translate(-0.18327825,1.5875)">
      <path
         d="M 6.7169522,289.13803 H 6.3793328 l -0.972895,-1.83555 v 1.83555 h -0.254937 v -2.0519 h 0.4230577 l 0.8874566,1.6757 v -1.6757 h 0.2549371 z"
         style="font-style:normal;font-variant:normal;font-weight:normal;font-stretch:normal;font-size:2.82222223px;font-family:sans-serif;-inkscape-font-specification:'sans-serif, Normal';font-variant-ligatures:normal;font-variant-caps:normal;font-variant-numeric:normal;font-feature-settings:normal;text-align:start;writing-mode:lr-tb;text-anchor:start;stroke-width:0.26458332"
         id="path898"
         inkscape:connector-curvature="0" />
      <path
         d="m 8.5538771,288.36909 q 0,0.3762 -0.1929253,0.59393 -0.1929254,0.21773 -0.5167644,0.21773 -0.326595,0 -0.5195204,-0.21773 -0.1915473,-0.21773 -0.1915473,-0.59393 0,-0.37621 0.1915473,-0.59394 0.1929254,-0.21911 0.5195204,-0.21911 0.323839,0 0.5167644,0.21911 0.1929253,0.21773 0.1929253,0.59394 z m -0.2673394,0 q 0,-0.29904 -0.1171333,-0.44373 -0.1171332,-0.14607 -0.325217,-0.14607 -0.2108398,0 -0.3279731,0.14607 -0.1157552,0.14469 -0.1157552,0.44373 0,0.28938 0.1171333,0.43959 0.1171332,0.14883 0.326595,0.14883 0.2067058,0 0.323839,-0.14745 0.1185113,-0.14883 0.1185113,-0.44097 z"
         style="font-style:normal;font-variant:normal;font-weight:normal;font-stretch:normal;font-size:2.82222223px;font-family:sans-serif;-inkscape-font-specification:'sans-serif, Normal';font-variant-ligatures:normal;font-variant-caps:normal;font-variant-numeric:normal;font-feature-settings:normal;text-align:start;writing-mode:lr-tb;text-anchor:start;stroke-width:0.26458332"
         id="path900"
         inkscape:connector-curvature="0" />
      <path
         d="M 10.243352,289.13803 H 9.9842809 v -0.87643 q 0,-0.10611 -0.012402,-0.19844 -0.012402,-0.0937 -0.045475,-0.14607 -0.034451,-0.0579 -0.099219,-0.0854 -0.064768,-0.0289 -0.1681206,-0.0289 -0.106109,0 -0.2218642,0.0524 -0.1157552,0.0524 -0.2218641,0.13367 v 1.14928 H 8.9562644 v -1.53927 h 0.2590712 v 0.17088 q 0.1212673,-0.1006 0.2508029,-0.1571 0.1295356,-0.0565 0.2659614,-0.0565 0.2494249,0 0.3803381,0.15021 0.130914,0.15021 0.130914,0.4327 z"
         style="font-style:normal;font-variant:normal;font-weight:normal;font-stretch:normal;font-size:2.82222223px;font-family:sans-serif;-inkscape-font-specification:'sans-serif, Normal';font-variant-ligatures:normal;font-variant-caps:normal;font-variant-numeric:normal;font-feature-settings:normal;text-align:start;writing-mode:lr-tb;text-anchor:start;stroke-width:0.26458332"
         id="path902"
         inkscape:connector-curvature="0" />
      <path
         d="m 12.060984,289.13803 h -1.298112 v -2.0519 h 0.272852 v 1.80937 h 1.02526 z"
         style="font-style:normal;font-variant:normal;font-weight:normal;font-stretch:normal;font-size:2.82222223px;font-family:sans-serif;-inkscape-font-specification:'sans-serif, Normal';font-variant-ligatures:normal;font-variant-caps:normal;font-variant-numeric:normal;font-feature-settings:normal;text-align:start;writing-mode:lr-tb;text-anchor:start;stroke-width:0.26458332"
         id="path904"
         inkscape:connector-curvature="0" />
      <path
         d="m 12.591529,287.34107 h -0.292144 v -0.26872 h 0.292144 z m -0.01654,1.79696 h -0.259071 v -1.53927 h 0.259071 z"
         style="font-style:normal;font-variant:normal;font-weight:normal;font-stretch:normal;font-size:2.82222223px;font-family:sans-serif;-inkscape-font-specification:'sans-serif, Normal';font-variant-ligatures:normal;font-variant-caps:normal;font-variant-numeric:normal;font-feature-settings:normal;text-align:start;writing-mode:lr-tb;text-anchor:start;stroke-width:0.26458332"
         id="path906"
         inkscape:connector-curvature="0" />
      <path
         d="m 14.377467,289.13803 h -0.259071 v -0.87643 q 0,-0.10611 -0.0124,-0.19844 -0.0124,-0.0937 -0.04547,-0.14607 -0.03445,-0.0579 -0.09922,-0.0854 -0.06477,-0.0289 -0.16812,-0.0289 -0.106109,0 -0.221865,0.0524 -0.115755,0.0524 -0.221864,0.13367 v 1.14928 h -0.259071 v -1.53927 h 0.259071 v 0.17088 q 0.121268,-0.1006 0.250803,-0.1571 0.129536,-0.0565 0.265962,-0.0565 0.249425,0 0.380338,0.15021 0.130914,0.15021 0.130914,0.4327 z"
         style="font-style:normal;font-variant:normal;font-weight:normal;font-stretch:normal;font-size:2.82222223px;font-family:sans-serif;-inkscape-font-specification:'sans-serif, Normal';font-variant-ligatures:normal;font-variant-caps:normal;font-variant-numeric:normal;font-feature-settings:normal;text-align:start;writing-mode:lr-tb;text-anchor:start;stroke-width:0.26458332"
         id="path908"
         inkscape:connector-curvature="0" />
      <path
         d="m 16.164782,288.39527 h -1.134125 q 0,0.14194 0.04272,0.24805 0.04272,0.10473 0.117133,0.17225 0.07166,0.0661 0.169499,0.0992 0.09922,0.0331 0.21773,0.0331 0.157096,0 0.315571,-0.062 0.159852,-0.0634 0.227376,-0.12402 h 0.01378 v 0.28249 q -0.130913,0.0551 -0.267339,0.0923 -0.136426,0.0372 -0.286632,0.0372 -0.383095,0 -0.598069,-0.20671 -0.214974,-0.20808 -0.214974,-0.5898 0,-0.37758 0.205328,-0.59944 0.206706,-0.22187 0.542947,-0.22187 0.311437,0 0.479557,0.1819 0.169499,0.18191 0.169499,0.51677 z m -0.252181,-0.19844 q -0.0014,-0.20395 -0.103353,-0.31557 -0.100596,-0.11162 -0.307302,-0.11162 -0.208084,0 -0.332107,0.12264 -0.122646,0.12265 -0.139182,0.30455 z"
         style="font-style:normal;font-variant:normal;font-weight:normal;font-stretch:normal;font-size:2.82222223px;font-family:sans-serif;-inkscape-font-specification:'sans-serif, Normal';font-variant-ligatures:normal;font-variant-caps:normal;font-variant-numeric:normal;font-feature-settings:normal;text-align:start;writing-mode:lr-tb;text-anchor:start;stroke-width:0.26458332"
         id="path910"
         inkscape:connector-curvature="0" />
      <path
         d="m 17.75366,289.13803 h -0.257693 v -0.16399 q -0.03445,0.0234 -0.09371,0.0661 -0.05788,0.0413 -0.113,0.0661 -0.06477,0.0317 -0.148828,0.0524 -0.08406,0.022 -0.197059,0.022 -0.208084,0 -0.352778,-0.1378 -0.144694,-0.13781 -0.144694,-0.3514 0,-0.17501 0.07441,-0.2825 0.07579,-0.10887 0.214974,-0.17088 0.14056,-0.062 0.337619,-0.0841 0.19706,-0.022 0.423058,-0.0331 v -0.04 q 0,-0.0882 -0.03169,-0.14608 -0.03032,-0.0579 -0.08819,-0.091 -0.05512,-0.0317 -0.132292,-0.0427 -0.07717,-0.011 -0.16123,-0.011 -0.101975,0 -0.227377,0.0276 -0.125401,0.0262 -0.259071,0.0772 h -0.01378 v -0.2632 q 0.07579,-0.0207 0.219108,-0.0455 0.143316,-0.0248 0.282498,-0.0248 0.162608,0 0.282498,0.0276 0.121267,0.0262 0.209461,0.091 0.08682,0.0634 0.132292,0.16398 0.04547,0.1006 0.04547,0.24943 z m -0.257693,-0.37896 v -0.42857 q -0.118511,0.007 -0.279742,0.0207 -0.159852,0.0138 -0.253559,0.04 -0.111621,0.0317 -0.180523,0.0992 -0.0689,0.0662 -0.0689,0.18328 0,0.13229 0.07993,0.19982 0.07993,0.0661 0.243912,0.0661 0.136426,0 0.249425,-0.0524 0.112999,-0.0537 0.209462,-0.12816 z"
         style="font-style:normal;font-variant:normal;font-weight:normal;font-stretch:normal;font-size:2.82222223px;font-family:sans-serif;-inkscape-font-specification:'sans-serif, Normal';font-variant-ligatures:normal;font-variant-caps:normal;font-variant-numeric:normal;font-feature-settings:normal;text-align:start;writing-mode:lr-tb;text-anchor:start;stroke-width:0.26458332"
         id="path912"
         inkscape:connector-curvature="0" />
      <path
         d="m 19.215758,287.88126 h -0.01378 q -0.05788,-0.0138 -0.112999,-0.0193 -0.05374,-0.007 -0.128158,-0.007 -0.119889,0 -0.23151,0.0537 -0.111621,0.0524 -0.214974,0.13643 v 1.09278 h -0.259071 v -1.53927 h 0.259071 v 0.22738 q 0.15434,-0.12402 0.271473,-0.17501 0.118512,-0.0524 0.241157,-0.0524 0.06752,0 0.09784,0.004 0.03032,0.003 0.09095,0.0124 z"
         style="font-style:normal;font-variant:normal;font-weight:normal;font-stretch:normal;font-size:2.82222223px;font-family:sans-serif;-inkscape-font-specification:'sans-serif, Normal';font-variant-ligatures:normal;font-variant-caps:normal;font-variant-numeric:normal;font-feature-settings:normal;text-align:start;writing-mode:lr-tb;text-anchor:start;stroke-width:0.26458332"
         id="path914"
         inkscape:connector-curvature="0" />
    </g>
    <g
       aria-label="C"
       style="font-style:normal;font-weight:normal;font-size:10.58333302px;line-height:1.25;font-family:sans-serif;letter-spacing:0px;word-spacing:0px;fill:#ffffff;fill-opacity:1;stroke:none;stroke-width:0.26458332"
       id="text919"
       transform="translate(0.49123065,-3.7041668)">
      <path
         d="m 12.572795,233.20045 q -0.09474,0.0414 -0.172255,0.0775 -0.07579,0.0362 -0.199815,0.0758 -0.105076,0.0327 -0.229099,0.0551 -0.122301,0.0241 -0.27044,0.0241 -0.279053,0 -0.508152,-0.0775 -0.227376,-0.0792 -0.396186,-0.24632 -0.165364,-0.16364 -0.258382,-0.41513 -0.09302,-0.25322 -0.09302,-0.58739 0,-0.31695 0.08957,-0.56672 0.08957,-0.24977 0.258382,-0.42203 0.163642,-0.16708 0.394464,-0.25493 0.232543,-0.0878 0.515041,-0.0878 0.206706,0 0.411689,0.0499 0.206706,0.05 0.458198,0.1757 v 0.4048 h -0.02584 q -0.211874,-0.17742 -0.420302,-0.25838 -0.208428,-0.081 -0.44614,-0.081 -0.194648,0 -0.3514,0.0637 -0.155029,0.062 -0.27733,0.19465 -0.118856,0.12919 -0.186035,0.32728 -0.06546,0.19637 -0.06546,0.45476 0,0.27044 0.07235,0.46508 0.07407,0.19465 0.189481,0.31695 0.120578,0.12747 0.280775,0.18948 0.161919,0.0603 0.341064,0.0603 0.246325,0 0.461643,-0.0844 0.215318,-0.0844 0.403076,-0.25322 h 0.02412 z"
         style="font-style:normal;font-variant:normal;font-weight:normal;font-stretch:normal;font-size:3.52777767px;font-family:sans-serif;-inkscape-font-specification:'sans-serif, Normal';font-variant-ligatures:normal;font-variant-caps:normal;font-variant-numeric:normal;font-feature-settings:normal;text-align:start;writing-mode:lr-tb;text-anchor:start;fill:#ffffff;fill-opacity:1;stroke-width:0.26458332"
         id="path921"
         inkscape:connector-curvature="0" />
    </g>
    <g
       aria-label="QU4DiT"
       style="font-style:normal;font-weight:normal;font-size:10.58333302px;line-height:1.25;font-family:sans-serif;letter-spacing:0px;word-spacing:0px;fill:#ffffff;fill-opacity:1;stroke:none;stroke-width:0.26458332"
       id="text946"
       transform="translate(0.09945315,-2.6458334)">
      <path
         d="m 6.8562449,207.68422 q -0.1240234,0.031 -0.2459798,0.0434 -0.1198893,0.0145 -0.2459798,0.0145 -0.3596679,0 -0.578776,-0.19844 -0.217041,-0.19637 -0.2356445,-0.5643 -0.049609,0.008 -0.097152,0.0103 -0.045475,0.004 -0.088883,0.004 -0.324528,0 -0.5911784,-0.10749 -0.2645833,-0.10749 -0.4506185,-0.31213 -0.1860351,-0.20463 -0.2873209,-0.50229 -0.099219,-0.29766 -0.099219,-0.68006 0,-0.37621 0.099219,-0.67386 0.099219,-0.29973 0.289388,-0.51263 0.181901,-0.20257 0.4506185,-0.31006 0.2707844,-0.10749 0.5891113,-0.10749 0.3307291,0 0.5932454,0.10956 0.2645833,0.10748 0.4485514,0.30799 0.1881022,0.2067 0.2873209,0.50643 0.1012858,0.29972 0.1012858,0.68006 0,0.5643 -0.2315104,0.95084 -0.2294433,0.38654 -0.6180501,0.54157 0.00827,0.23565 0.1116211,0.36587 0.1033529,0.13023 0.3762044,0.13023 0.084749,0 0.2005046,-0.0269 0.1178222,-0.0248 0.1674316,-0.0455 h 0.05581 z m -0.4878255,-2.29236 q 0,-0.59945 -0.2687174,-0.92398 -0.2687174,-0.32659 -0.7338053,-0.32659 -0.469222,0 -0.7379394,0.32659 -0.2666504,0.32453 -0.2666504,0.92398 0,0.60565 0.2728516,0.92811 0.2728515,0.32039 0.7317382,0.32039 0.4588867,0 0.7296712,-0.32039 0.2728515,-0.32246 0.2728515,-0.92811 z"
         style="font-style:normal;font-variant:normal;font-weight:normal;font-stretch:normal;font-size:4.23333311px;font-family:sans-serif;-inkscape-font-specification:'sans-serif, Normal';font-variant-ligatures:normal;font-variant-caps:normal;font-variant-numeric:normal;font-feature-settings:normal;text-align:start;writing-mode:lr-tb;text-anchor:start;fill:#ffffff;fill-opacity:1;stroke-width:0.26458332"
         id="path964"
         inkscape:connector-curvature="0" />
      <path
         d="m 9.7604602,205.69365 q 0,0.33486 -0.074414,0.58498 -0.072347,0.24804 -0.2397786,0.41341 -0.1591634,0.15709 -0.3720703,0.22944 -0.2129069,0.0724 -0.4960937,0.0724 -0.289388,0 -0.504362,-0.0765 -0.2149739,-0.0765 -0.361735,-0.22531 -0.1674316,-0.1695 -0.2418457,-0.40928 -0.072347,-0.23978 -0.072347,-0.58911 v -1.84175 h 0.4092774 v 1.86242 q 0,0.25011 0.033073,0.39481 0.03514,0.14469 0.1157552,0.26251 0.09095,0.13436 0.2459798,0.20257 0.1570963,0.0682 0.3762044,0.0682 0.2211751,0 0.3762044,-0.0661 0.1550293,-0.0682 0.2480469,-0.20464 0.080615,-0.11782 0.1136881,-0.26871 0.03514,-0.15297 0.03514,-0.37828 v -1.87275 h 0.4092773 z"
         style="font-style:normal;font-variant:normal;font-weight:normal;font-stretch:normal;font-size:4.23333311px;font-family:sans-serif;-inkscape-font-specification:'sans-serif, Normal';font-variant-ligatures:normal;font-variant-caps:normal;font-variant-numeric:normal;font-feature-settings:normal;text-align:start;writing-mode:lr-tb;text-anchor:start;fill:#ffffff;fill-opacity:1;stroke-width:0.26458332"
         id="path966"
         inkscape:connector-curvature="0" />
      <path
         d="m 12.617133,206.06365 h -0.456819 v 0.8661 h -0.396875 v -0.8661 h -1.473812 v -0.47542 l 1.490348,-1.73633 h 0.380339 v 1.88102 h 0.456819 z m -0.853694,-0.33073 v -1.38906 l -1.192692,1.38906 z"
         style="font-style:normal;font-variant:normal;font-weight:normal;font-stretch:normal;font-size:4.23333311px;font-family:sans-serif;-inkscape-font-specification:'sans-serif, Normal';font-variant-ligatures:normal;font-variant-caps:normal;font-variant-numeric:normal;font-feature-settings:normal;text-align:start;writing-mode:lr-tb;text-anchor:start;fill:#ffffff;fill-opacity:1;stroke-width:0.26458332"
         id="path968"
         inkscape:connector-curvature="0" />
      <path
         d="m 15.839675,205.39393 q 0,0.41961 -0.183968,0.76067 -0.181901,0.34107 -0.485758,0.52917 -0.21084,0.13022 -0.471289,0.1881 -0.258383,0.0579 -0.682129,0.0579 h -0.777214 v -3.07785 h 0.768946 q 0.450618,0 0.715201,0.0661 0.266651,0.0641 0.450619,0.17776 0.314192,0.19637 0.489892,0.52297 0.1757,0.32659 0.1757,0.77515 z m -0.427881,-0.006 q 0,-0.36173 -0.12609,-0.60978 -0.126091,-0.24804 -0.376205,-0.39067 -0.181901,-0.10335 -0.386539,-0.14263 -0.204639,-0.0413 -0.489893,-0.0413 h -0.384472 v 2.37505 h 0.384472 q 0.295589,0 0.514697,-0.0434 0.221176,-0.0434 0.405144,-0.16123 0.229443,-0.14676 0.343131,-0.38654 0.115755,-0.23978 0.115755,-0.59945 z"
         style="font-style:normal;font-variant:normal;font-weight:normal;font-stretch:normal;font-size:4.23333311px;font-family:sans-serif;-inkscape-font-specification:'sans-serif, Normal';font-variant-ligatures:normal;font-variant-caps:normal;font-variant-numeric:normal;font-feature-settings:normal;text-align:start;writing-mode:lr-tb;text-anchor:start;fill:#ffffff;fill-opacity:1;stroke-width:0.26458332"
         id="path970"
         inkscape:connector-curvature="0" />
      <path
         d="m 16.891808,204.23431 h -0.438216 v -0.40308 h 0.438216 z m -0.02481,2.69544 h -0.388606 v -2.3089 h 0.388606 z"
         style="font-style:normal;font-variant:normal;font-weight:normal;font-stretch:normal;font-size:4.23333311px;font-family:sans-serif;-inkscape-font-specification:'sans-serif, Normal';font-variant-ligatures:normal;font-variant-caps:normal;font-variant-numeric:normal;font-feature-settings:normal;text-align:start;writing-mode:lr-tb;text-anchor:start;fill:#ffffff;fill-opacity:1;stroke-width:0.26458332"
         id="path972"
         inkscape:connector-curvature="0" />
      <path
         d="m 19.866303,204.2157 h -1.099674 v 2.71405 h -0.409278 v -2.71405 h -1.099674 v -0.3638 h 2.608626 z"
         style="font-style:normal;font-variant:normal;font-weight:normal;font-stretch:normal;font-size:4.23333311px;font-family:sans-serif;-inkscape-font-specification:'sans-serif, Normal';font-variant-ligatures:normal;font-variant-caps:normal;font-variant-numeric:normal;font-feature-settings:normal;text-align:start;writing-mode:lr-tb;text-anchor:start;fill:#ffffff;fill-opacity:1;stroke-width:0.26458332"
         id="path974"
         inkscape:connector-curvature="0" />
    </g>
    <g
       aria-label="cv"
       style="font-style:normal;font-weight:normal;font-size:10.58333302px;line-height:1.25;font-family:sans-serif;letter-spacing:0px;word-spacing:0px;fill:#fffffd;fill-opacity:1;stroke:none;stroke-width:0.26458332"
       id="text974"
       transform="translate(-0.15697385,-2.6458334)">
      <path
         d="m 11.897219,267.7485 q -0.161919,0.0775 -0.308336,0.12058 -0.144694,0.0431 -0.308336,0.0431 -0.208428,0 -0.382405,-0.0603 -0.173978,-0.062 -0.298001,-0.18603 -0.125746,-0.12402 -0.194648,-0.3135 -0.0689,-0.18948 -0.0689,-0.4427 0,-0.47198 0.258382,-0.74069 0.260105,-0.26872 0.685574,-0.26872 0.165365,0 0.323839,0.0465 0.160197,0.0465 0.292833,0.11368 v 0.36002 h -0.01722 q -0.148139,-0.11541 -0.306614,-0.17743 -0.156752,-0.062 -0.306613,-0.062 -0.275608,0 -0.435805,0.18604 -0.158474,0.18431 -0.158474,0.5426 0,0.34796 0.155029,0.53571 0.156752,0.18604 0.43925,0.18604 0.09819,0 0.199815,-0.0258 0.101631,-0.0258 0.18259,-0.0672 0.07062,-0.0362 0.132637,-0.0758 0.06201,-0.0413 0.09818,-0.0706 h 0.01722 z"
         style="font-style:normal;font-variant:normal;font-weight:normal;font-stretch:normal;font-size:3.52777767px;font-family:sans-serif;-inkscape-font-specification:'sans-serif, Normal';font-variant-ligatures:normal;font-variant-caps:normal;font-variant-numeric:normal;font-feature-settings:normal;text-align:start;writing-mode:lr-tb;text-anchor:start;fill:#fffffd;fill-opacity:1;stroke-width:0.26458332"
         id="path976"
         inkscape:connector-curvature="0" />
      <path
         d="m 13.978057,265.94499 -0.778592,1.92409 h -0.325561 l -0.773424,-1.92409 h 0.3514 l 0.596001,1.53135 0.590834,-1.53135 z"
         style="font-style:normal;font-variant:normal;font-weight:normal;font-stretch:normal;font-size:3.52777767px;font-family:sans-serif;-inkscape-font-specification:'sans-serif, Normal';font-variant-ligatures:normal;font-variant-caps:normal;font-variant-numeric:normal;font-feature-settings:normal;text-align:start;writing-mode:lr-tb;text-anchor:start;fill:#fffffd;fill-opacity:1;stroke-width:0.26458332"
         id="path978"
         inkscape:connector-curvature="0" />
    </g>
    <g
       aria-label="cv~C"
       style="font-style:normal;font-weight:normal;font-size:10.58333301999999954px;line-height:1.25;font-family:sans-serif;letter-spacing:0px;word-spacing:0px;fill:#fffffe;fill-opacity:1;stroke:none;stroke-width:0.26458332"
       id="text874"
       transform="translate(-0.1645484,-1.0583333)">
      <path
         d="m 9.2460424,250.9649 q -0.1619195,0.0775 -0.3083361,0.12058 -0.144694,0.0431 -0.308336,0.0431 -0.2084283,0 -0.3824056,-0.0603 -0.1739773,-0.062 -0.2980008,-0.18603 -0.1257459,-0.12402 -0.1946478,-0.3135 -0.068902,-0.18948 -0.068902,-0.4427 0,-0.47198 0.2583822,-0.74069 0.2601047,-0.26872 0.685574,-0.26872 0.1653646,0 0.323839,0.0465 0.1601969,0.0465 0.2928331,0.11368 v 0.36002 h -0.017226 q -0.1481391,-0.11541 -0.3066135,-0.17743 -0.1567518,-0.062 -0.3066135,-0.062 -0.2756076,0 -0.4358046,0.18604 -0.1584744,0.18431 -0.1584744,0.5426 0,0.34796 0.1550293,0.53571 0.1567519,0.18604 0.4392497,0.18604 0.098185,0 0.1998155,-0.0258 0.1016303,-0.0258 0.1825901,-0.0672 0.070624,-0.0362 0.1326362,-0.0758 0.062012,-0.0413 0.098185,-0.0706 h 0.017226 z"
         style="font-style:normal;font-variant:normal;font-weight:normal;font-stretch:normal;font-size:3.52777766999999987px;font-family:sans-serif;-inkscape-font-specification:'sans-serif, Normal';font-variant-ligatures:normal;font-variant-caps:normal;font-variant-numeric:normal;font-feature-settings:normal;text-align:start;writing-mode:lr-tb;text-anchor:start;stroke-width:0.26458332;fill:#fffffe;fill-opacity:1"
         id="path876"
         inkscape:connector-curvature="0" />
      <path
         d="m 11.32688,249.16139 -0.778592,1.92409 h -0.325561 l -0.773424,-1.92409 h 0.3513997 l 0.5960013,1.53135 0.590834,-1.53135 z"
         style="font-style:normal;font-variant:normal;font-weight:normal;font-stretch:normal;font-size:3.52777766999999987px;font-family:sans-serif;-inkscape-font-specification:'sans-serif, Normal';font-variant-ligatures:normal;font-variant-caps:normal;font-variant-numeric:normal;font-feature-settings:normal;text-align:start;writing-mode:lr-tb;text-anchor:start;stroke-width:0.26458332;fill:#fffffe;fill-opacity:1"
         id="path878"
         inkscape:connector-curvature="0" />
      <path
         d="m 13.996829,249.48868 q -0.0034,0.17053 -0.03962,0.33589 -0.03445,0.16537 -0.111965,0.29456 -0.07924,0.13264 -0.191203,0.20843 -0.111966,0.0758 -0.284221,0.0758 -0.161919,0 -0.287665,-0.0672 -0.125746,-0.0689 -0.27044,-0.2446 -0.1757,-0.21532 -0.254937,-0.27044 -0.07924,-0.0551 -0.165365,-0.0551 -0.161919,0 -0.248046,0.15158 -0.08613,0.14986 -0.101631,0.48748 h -0.287665 q 0.0034,-0.17225 0.0379,-0.33417 0.03617,-0.16364 0.111965,-0.29628 0.07407,-0.12747 0.192926,-0.20498 0.118856,-0.0792 0.28422,-0.0792 0.160197,0 0.285943,0.0672 0.127469,0.0655 0.273885,0.2446 0.137804,0.16881 0.225654,0.24805 0.08785,0.0775 0.192925,0.0775 0.177423,0 0.260105,-0.17397 0.08441,-0.17398 0.08957,-0.46509 z"
         style="font-style:normal;font-variant:normal;font-weight:normal;font-stretch:normal;font-size:3.52777766999999987px;font-family:sans-serif;-inkscape-font-specification:'sans-serif, Normal';font-variant-ligatures:normal;font-variant-caps:normal;font-variant-numeric:normal;font-feature-settings:normal;text-align:start;writing-mode:lr-tb;text-anchor:start;stroke-width:0.26458332;fill:#fffffe;fill-opacity:1"
         id="path880"
         inkscape:connector-curvature="0" />
      <path
         d="m 16.644385,250.89944 q -0.09474,0.0413 -0.172255,0.0775 -0.07579,0.0362 -0.199816,0.0758 -0.105075,0.0327 -0.229098,0.0551 -0.122301,0.0241 -0.27044,0.0241 -0.279053,0 -0.508152,-0.0775 -0.227376,-0.0792 -0.396186,-0.24632 -0.165364,-0.16364 -0.258382,-0.41513 -0.09302,-0.25322 -0.09302,-0.58739 0,-0.31695 0.08957,-0.56672 0.08957,-0.24977 0.258382,-0.42203 0.163642,-0.16708 0.394463,-0.25493 0.232544,-0.0879 0.515042,-0.0879 0.206706,0 0.411689,0.0499 0.206706,0.05 0.458198,0.1757 v 0.4048 h -0.02584 q -0.211874,-0.17742 -0.420302,-0.25838 -0.208428,-0.081 -0.44614,-0.081 -0.194648,0 -0.3514,0.0637 -0.155029,0.062 -0.27733,0.19465 -0.118856,0.12919 -0.186035,0.32728 -0.06546,0.19637 -0.06546,0.45476 0,0.27044 0.07235,0.46508 0.07407,0.19465 0.18948,0.31695 0.120579,0.12747 0.280776,0.18948 0.161919,0.0603 0.341064,0.0603 0.246325,0 0.461643,-0.0844 0.215318,-0.0844 0.403076,-0.25322 h 0.02412 z"
         style="font-style:normal;font-variant:normal;font-weight:normal;font-stretch:normal;font-size:3.52777766999999987px;font-family:sans-serif;-inkscape-font-specification:'sans-serif, Normal';font-variant-ligatures:normal;font-variant-caps:normal;font-variant-numeric:normal;font-feature-settings:normal;text-align:start;writing-mode:lr-tb;text-anchor:start;stroke-width:0.26458332;fill:#fffffe;fill-opacity:1"
         id="path882"
         inkscape:connector-curvature="0" />
    </g>
    <path
       style="fill:#000000;fill-opacity:1;stroke-width:0.18428402"
       d="M 7.2824404,271.64805 H 16.718262 V 283.8944 H 7.2824404 Z"
       id="rect912"
       inkscape:connector-curvature="0"
       inkscape:path-effect="#path-effect4604"
       inkscape:original-d="M 7.2824404,271.64805 H 16.718262 V 283.8944 H 7.2824404 Z" />
    <g
       aria-label="out"
       transform="matrix(0.70962912,0,0,0.64206075,3.5257231,84.286434)"
       style="font-style:normal;font-weight:normal;font-size:4.85894585px;line-height:1.25;font-family:sans-serif;letter-spacing:0px;word-spacing:0px;fill:#000000;fill-opacity:1;stroke:none;stroke-width:0.12147364"
       id="text903">
      <path
         d="m 10.593543,295.24552 q 0,0.64771 -0.332155,1.02257 -0.3321543,0.37486 -0.8896993,0.37486 -0.5622901,0 -0.8944446,-0.37486 -0.329782,-0.37486 -0.329782,-1.02257 0,-0.6477 0.329782,-1.02256 0.3321545,-0.37723 0.8944446,-0.37723 0.557545,0 0.8896993,0.37723 0.332155,0.37486 0.332155,1.02256 z m -0.460271,0 q 0,-0.51484 -0.2016657,-0.76395 -0.2016653,-0.25149 -0.5599176,-0.25149 -0.3629974,0 -0.5646627,0.25149 -0.1992927,0.24911 -0.1992927,0.76395 0,0.49824 0.2016653,0.75684 0.2016652,0.25624 0.5622901,0.25624 0.3558798,0 0.557545,-0.25387 0.2040383,-0.25623 0.2040383,-0.75921 z"
         style="fill:#ffffff;fill-opacity:1;stroke-width:0.12147364"
         id="path905"
         inkscape:connector-curvature="0" />
      <path
         d="m 13.483287,296.5694 h -0.446036 v -0.2942 q -0.225391,0.17794 -0.431801,0.27284 -0.20641,0.0949 -0.455526,0.0949 -0.417566,0 -0.650074,-0.25387 -0.232508,-0.25623 -0.232508,-0.74972 v -1.72008 h 0.446036 v 1.50893 q 0,0.20166 0.01898,0.34639 0.01898,0.14235 0.08067,0.24437 0.06406,0.10439 0.166078,0.15184 0.102018,0.0474 0.296566,0.0474 0.173195,0 0.377233,-0.0901 0.20641,-0.0902 0.38435,-0.23014 v -1.97869 h 0.446036 z"
         style="fill:#ffffff;fill-opacity:1;stroke-width:0.12147364"
         id="path907"
         inkscape:connector-curvature="0" />
      <path
         d="m 15.737193,296.54567 q -0.125745,0.0332 -0.275214,0.0546 -0.147097,0.0214 -0.263351,0.0214 -0.405703,0 -0.616859,-0.21827 -0.211155,-0.21827 -0.211155,-0.6999 v -1.40928 h -0.301312 v -0.37486 h 0.301312 v -0.76158 h 0.446036 v 0.76158 h 0.920543 v 0.37486 H 14.81665 v 1.20762 q 0,0.20878 0.0095,0.32741 0.0095,0.11625 0.06643,0.21827 0.0522,0.0949 0.142352,0.13998 0.09253,0.0427 0.279959,0.0427 0.109136,0 0.227763,-0.0308 0.118627,-0.0332 0.170822,-0.0546 h 0.02373 z"
         style="fill:#ffffff;fill-opacity:1;stroke-width:0.12147364"
         id="path909"
         inkscape:connector-curvature="0" />
    </g>
  </g>
</svg>
